<svg preserveAspectRatio="none" overflow="visible" style="display: block;" width="28" height="28" viewBox="0 0 28 28" fill="none" xmlns="http://www.w3.org/2000/svg">
<g id="Icons">
<g id="Icon">
<path fill-rule="evenodd" clip-rule="evenodd" d="M23.5928 18.6349C23.1786 18.6349 22.8428 18.2991 22.8428 17.8849L22.8428 4.76862C22.8428 4.56818 22.6188 4.44924 22.4528 4.56155L19.9322 6.26656C19.3135 6.68506 18.9428 7.3833 18.9428 8.13023L18.9428 14.2515C18.9428 14.3895 19.0548 14.5015 19.1928 14.5015H19.6929C20.1071 14.5015 20.4429 14.8372 20.4429 15.2515C20.4429 15.6657 20.1071 16.0015 19.6929 16.0015H19.1928C18.2263 16.0015 17.4428 15.218 17.4428 14.2515L17.4428 8.13023C17.4428 6.88535 18.0606 5.72161 19.0917 5.02412L21.6123 3.3191C22.7745 2.53298 24.3428 3.36556 24.3428 4.76862L24.3428 17.8849C24.3428 18.2991 24.007 18.6349 23.5928 18.6349Z" fill="#344054"/>
<path fill-rule="evenodd" clip-rule="evenodd" d="M6.08217 10.797H11.3972L10.616 23.3869C10.5525 24.2938 9.79833 24.997 8.78926 24.997C7.7854 24.997 7.03371 24.3016 6.96354 23.4004L6.08217 10.797ZM7.70351 12.297L8.45901 23.284C8.46837 23.4042 8.66867 23.497 8.78926 23.497C9.01055 23.497 9.11117 23.4032 9.11964 23.2822L9.78851 12.297H7.70351Z" fill="#344054"/>
<path fill-rule="evenodd" clip-rule="evenodd" d="M3.61942 5.38125C3.17603 4.23455 4.0222 3.00012 5.25165 3.00012H12.234C13.4635 3.00012 14.3096 4.23454 13.8662 5.38125L11.3069 12.0001H6.17872L3.61942 5.38125ZM5.25165 4.50012C5.07602 4.50012 4.95513 4.67647 5.01847 4.84028L7.20694 10.5001H10.2787L12.4672 4.84028C12.5305 4.67647 12.4096 4.50012 12.234 4.50012H5.25165Z" fill="#344054"/>
<path d="M24.3928 17.9845L18.3928 17.9845C17.8406 17.9845 17.3928 18.4322 17.3928 18.9845V23.9845C17.3928 24.5368 17.8406 24.9845 18.3928 24.9845H23.3928C23.9451 24.9845 24.3928 24.5368 24.3928 23.9845V17.9845Z" fill="#344054"/>
</g>
</g>
</svg>
