<svg preserveAspectRatio="none" overflow="visible" style="display: block;" width="93.8083" height="16.0001" viewBox="0 0 93.8083 16.0001" fill="none" xmlns="http://www.w3.org/2000/svg">
<g id="Group 1686556680">
<path id="Vector" d="M93.2958 3.19213L92.0126 1.13613C91.7456 0.708129 91.4268 0.330129 91.0681 0.000128984H61.4727V16.0001C69.0444 16.0001 78.9075 15.9961 85.6085 15.9961C85.6424 15.9841 85.6762 15.9721 85.7101 15.9601C85.6802 15.9621 85.6503 15.9681 85.6184 15.9701C87.5054 14.9701 89.1293 13.4741 90.3109 11.5821L93.2958 6.80013C93.9792 5.70413 93.9792 4.28813 93.2958 3.19213Z" fill="white"/>
<path id="Vector_2" d="M0.000113398 8.00001C0.000113398 12.42 3.56878 16.002 7.97034 16C16.4626 15.998 30.2372 15.996 37.8388 15.996C41.6127 15.996 44.6892 15.21 46.6917 12C48.6942 8.79 52.5001 0 52.5001 0C52.5001 0 49.824 6.91414e-06 46.6917 6.91414e-06H7.97034C3.56878 6.91414e-06 0.000113398 3.58201 0.000113398 8.00001Z" fill="#FEEE00"/>
<g id="Group">
<path id="Vector_3" d="M7.86338 10.9761C8.55281 10.9761 9.28806 10.7641 9.82804 10.3861L9.37972 9.33813C9.03501 9.60813 8.47111 9.75013 7.97696 9.75013C6.94282 9.75013 6.44867 9.10213 6.44867 8.61813V8.47613H10.5733C10.6191 8.30013 10.6888 7.87613 10.6888 7.53413C10.6888 5.94413 9.62082 5.00013 8.19614 5.00013C6.34705 5.00013 4.99012 6.56813 4.99012 8.41613C4.99012 10.0061 6.11591 10.9721 7.86338 10.9721V10.9761ZM9.36776 7.44213H6.61007C6.72563 6.81813 7.31145 6.22813 8.10448 6.22813C8.97722 6.22813 9.39167 6.74613 9.39167 7.32413C9.39167 7.34813 9.39167 7.41813 9.37972 7.44213H9.36776Z" fill="black"/>
<path id="Vector_4" d="M16.1908 10.8338L14.8339 7.91181L17.2927 5.14381H15.6149L14.0867 6.88781L13.3275 5.14381H11.7414L12.9947 7.91181L10.3984 10.8338H12.0642L13.7539 8.91381L14.6167 10.8338H16.1908Z" fill="black"/>
<path id="Vector_5" d="M20.3029 10.9762C22.1879 10.9762 23.222 9.0682 23.222 7.3582C23.222 5.8502 22.3712 5.0022 21.1199 5.0022C20.4544 5.0022 19.9124 5.2842 19.4422 5.8502L19.6036 5.1442H18.145L16.4434 13.0022H17.9019L18.5336 10.0802C18.9022 10.6462 19.5557 10.9762 20.3029 10.9762ZM20.0618 9.6442C19.476 9.6442 19.0038 9.3722 18.7627 8.9842L19.1991 7.0162C19.4979 6.6282 19.9582 6.3322 20.4623 6.3322C21.1757 6.3322 21.6918 6.8502 21.6918 7.6642C21.6918 8.7122 21.0262 9.6442 20.0598 9.6442H20.0618Z" fill="black"/>
<path id="Vector_6" d="M25.0718 10.8342L25.8768 7.1002C26.1976 6.7222 26.7157 6.4162 27.2557 6.4162C27.4848 6.4162 27.692 6.4642 27.7837 6.4862L28.1045 5.0022C27.2198 5.0022 26.622 5.3442 26.1398 5.8862L26.3012 5.1442H24.8427L23.6133 10.8342H25.0718Z" fill="black"/>
<path id="Vector_7" d="M30.844 10.9763C31.5334 10.9763 32.2686 10.7643 32.8086 10.3863L32.3603 9.33825C32.0156 9.60825 31.4517 9.75025 30.9575 9.75025C29.9234 9.75025 29.4293 9.10225 29.4293 8.61825V8.47625H33.5538C33.5997 8.30025 33.6694 7.87625 33.6694 7.53425C33.6694 5.94425 32.6014 5.00025 31.1767 5.00025C29.3276 5.00025 27.9707 6.56825 27.9707 8.41625C27.9707 10.0063 29.0965 10.9723 30.844 10.9723V10.9763ZM32.3503 7.44225H29.5926C29.7082 6.81825 30.294 6.22825 31.0871 6.22825C31.9598 6.22825 32.3743 6.74625 32.3743 7.32425C32.3743 7.34825 32.3743 7.41825 32.3623 7.44225H32.3503Z" fill="black"/>
<path id="Vector_8" d="M36.5184 10.9763C38.0347 10.9763 38.9194 10.0683 38.9194 8.98425C38.9194 7.25225 36.092 7.40625 36.092 6.71025C36.092 6.41625 36.3789 6.18025 36.897 6.18025C37.5745 6.18025 38.2639 6.56825 38.5289 6.92225L39.2881 5.92025C38.76 5.36625 37.8753 5.00025 36.9329 5.00025C35.4504 5.00025 34.6454 5.93025 34.6454 6.92025C34.6454 8.62825 37.4728 8.44025 37.4728 9.20625C37.4728 9.52425 37.162 9.79625 36.6679 9.79625C35.8629 9.79625 35.0599 9.30225 34.7251 8.90025L33.9102 9.94825C34.5298 10.6203 35.5082 10.9743 36.5184 10.9743V10.9763Z" fill="black"/>
<path id="Vector_9" d="M41.995 10.9763C43.5113 10.9763 44.396 10.0683 44.396 8.98425C44.396 7.25225 41.5686 7.40625 41.5686 6.71025C41.5686 6.41625 41.8555 6.18025 42.3736 6.18025C43.051 6.18025 43.7405 6.56825 44.0055 6.92225L44.7646 5.92025C44.2366 5.36625 43.3519 5.00025 42.4094 5.00025C40.927 5.00025 40.122 5.93025 40.122 6.92025C40.122 8.62825 42.9494 8.44025 42.9494 9.20625C42.9494 9.52425 42.6386 9.79625 42.1444 9.79625C41.3394 9.79625 40.5364 9.30225 40.2017 8.90025L39.3867 9.94825C40.0064 10.6203 40.9847 10.9743 41.995 10.9743V10.9763Z" fill="black"/>
</g>
</g>
</svg>
